<?xml version="1.0" encoding="utf-8"?>
<!-- Generator: Adobe Illustrator 21.0.2, SVG Export Plug-In . SVG Version: 6.00 Build 0)  -->
<svg version="1.1" xmlns="http://www.w3.org/2000/svg" xmlns:xlink="http://www.w3.org/1999/xlink" x="0px" y="0px"
	 viewBox="0 0 400 400" style="enable-background:new 0 0 400 400;" xml:space="preserve">
<style type="text/css">
	.st0{fill:#FFFFFF;}
	.st1{fill:#1AB4EF;}
</style>
<g id="Grid">
</g>
<g id="Fonts">
</g>
<g id="Logo">
	<g>
		<path class="st1" d="M183.9,274.1c52,0,94.4-42.3,94.4-94.4c0-29.7-24.1-53.8-53.8-53.8c-29.7,0-53.8,24.1-53.8,53.8
			c0,24.9,17,45.9,40,52c11.2-5.8,20.4-15.1,25.9-26.6c-3.7,1.8-7.8,2.7-12.1,2.7c-15.5,0-28.2-12.6-28.2-28.2
			c0-15.5,12.6-28.2,28.2-28.2c15.5,0,28.2,12.6,28.2,28.2c0,37.9-30.8,68.8-68.8,68.8c-37.9,0-68.8-30.8-68.8-68.8H89.6
			C89.6,231.8,131.9,274.1,183.9,274.1z"/>
		<path class="st1" d="M323,169.4l32.5-27.1H316c-14.8-36-50.2-61.5-91.5-61.5c-54.5,0-98.9,44.3-98.9,98.9c0,2.7,0.1,5.4,0.4,8.1
			c3.8,27.3,26.5,48.6,54.3,50.3c-17.7-13.4-29.1-34.6-29.1-58.4c0-40.4,32.9-73.2,73.2-73.2c40.4,0,73.2,32.9,73.2,73.2
			c0,62.8-51.1,113.8-113.8,113.8c-62.8,0-113.8-51.1-113.8-113.8H44.5c0,76.9,62.5,139.4,139.4,139.4c71.2,0,130-53.6,138.4-122.6
			h33.2L323,169.4z"/>
	</g>
</g>
</svg>
